<mxfile host="Electron" modified="2024-04-23T10:43:08.628Z" agent="Mozilla/5.0 (Windows NT 10.0; Win64; x64) AppleWebKit/537.36 (KHTML, like Gecko) draw.io/24.2.5 Chrome/120.0.6099.109 Electron/28.1.0 Safari/537.36" etag="ohlwhmFmR7WGWvjdUx82" version="24.2.5" type="device">
  <diagram name="Page-1" id="WSeZ6QhP1aB7t00MqjyM">
    <mxGraphModel dx="3781" dy="1244" grid="1" gridSize="10" guides="1" tooltips="1" connect="1" arrows="1" fold="1" page="1" pageScale="1" pageWidth="827" pageHeight="1169" math="0" shadow="0">
      <root>
        <mxCell id="0" />
        <mxCell id="1" parent="0" />
        <mxCell id="4WO6VbGbFrIAR0FbYB0c-1" value="&lt;p style=&quot;margin:0px;margin-top:4px;text-align:center;&quot;&gt;&lt;i&gt;&amp;lt;&amp;lt;Interface&amp;gt;&amp;gt;&lt;/i&gt;&lt;br&gt;&lt;b&gt;Cllick-up Application Interface&lt;/b&gt;&lt;/p&gt;&lt;hr size=&quot;1&quot; style=&quot;border-style:solid;&quot;&gt;&lt;p style=&quot;margin:0px;margin-left:4px;&quot;&gt;+ object type: Reminder&lt;br&gt;+ object type: Task&lt;/p&gt;&lt;p style=&quot;margin:0px;margin-left:4px;&quot;&gt;&lt;br&gt;&lt;/p&gt;&lt;hr size=&quot;1&quot; style=&quot;border-style:solid;&quot;&gt;&lt;p style=&quot;margin:0px;margin-left:4px;&quot;&gt;+ method1(Type): Type&lt;br&gt;+ method2(Type, Type): Type&lt;/p&gt;" style="verticalAlign=top;align=left;overflow=fill;html=1;whiteSpace=wrap;" vertex="1" parent="1">
          <mxGeometry x="370" y="40" width="190" height="140" as="geometry" />
        </mxCell>
        <mxCell id="4WO6VbGbFrIAR0FbYB0c-2" value="&lt;p style=&quot;margin:0px;margin-top:4px;text-align:center;&quot;&gt;&lt;i&gt;&amp;lt;&amp;lt;Interface&amp;gt;&amp;gt;&lt;/i&gt;&lt;br&gt;&lt;b&gt;Google tasks Application Interface&lt;/b&gt;&lt;/p&gt;&lt;hr size=&quot;1&quot; style=&quot;border-style:solid;&quot;&gt;&lt;p style=&quot;margin:0px;margin-left:4px;&quot;&gt;+ field1: Type&lt;br&gt;+ field2: Type&lt;/p&gt;&lt;hr size=&quot;1&quot; style=&quot;border-style:solid;&quot;&gt;&lt;p style=&quot;margin:0px;margin-left:4px;&quot;&gt;+ method1(Type): Type&lt;br&gt;+ method2(Type, Type): Type&lt;/p&gt;" style="verticalAlign=top;align=left;overflow=fill;html=1;whiteSpace=wrap;" vertex="1" parent="1">
          <mxGeometry x="827" y="40" width="190" height="140" as="geometry" />
        </mxCell>
        <mxCell id="4WO6VbGbFrIAR0FbYB0c-7" value="&lt;p style=&quot;margin:0px;margin-top:4px;text-align:center;&quot;&gt;&lt;b&gt;Class-&lt;/b&gt;&lt;span style=&quot;background-color: initial;&quot;&gt;Clickup-gtasks timer user interface&lt;/span&gt;&lt;/p&gt;&lt;hr size=&quot;1&quot; style=&quot;border-style:solid;&quot;&gt;&lt;p style=&quot;margin:0px;margin-left:4px;&quot;&gt;+ field: Type&lt;/p&gt;&lt;hr size=&quot;1&quot; style=&quot;border-style:solid;&quot;&gt;&lt;p style=&quot;margin:0px;margin-left:4px;&quot;&gt;+ method(): Type&lt;/p&gt;" style="verticalAlign=top;align=left;overflow=fill;html=1;whiteSpace=wrap;" vertex="1" parent="1">
          <mxGeometry x="385" y="930" width="160" height="90" as="geometry" />
        </mxCell>
        <mxCell id="4WO6VbGbFrIAR0FbYB0c-8" value="&lt;p style=&quot;margin:0px;margin-top:4px;text-align:center;&quot;&gt;&lt;i&gt;&amp;lt;&amp;lt;Interface&amp;gt;&amp;gt;&lt;/i&gt;&lt;br&gt;&lt;b&gt;FocusCommit Application Interface&lt;/b&gt;&lt;/p&gt;&lt;hr size=&quot;1&quot; style=&quot;border-style:solid;&quot;&gt;&lt;p style=&quot;margin:0px;margin-left:4px;&quot;&gt;+ field1: Type&lt;br&gt;+ field2: Type&lt;/p&gt;&lt;hr size=&quot;1&quot; style=&quot;border-style:solid;&quot;&gt;&lt;p style=&quot;margin:0px;margin-left:4px;&quot;&gt;+ method1(Type): Type&lt;br&gt;+ method2(Type, Type): Type&lt;/p&gt;" style="verticalAlign=top;align=left;overflow=fill;html=1;whiteSpace=wrap;" vertex="1" parent="1">
          <mxGeometry x="600" y="40" width="190" height="140" as="geometry" />
        </mxCell>
        <mxCell id="4WO6VbGbFrIAR0FbYB0c-9" value="+ object type: attribute" style="text;strokeColor=none;fillColor=none;align=left;verticalAlign=top;spacingLeft=4;spacingRight=4;overflow=hidden;rotatable=0;points=[[0,0.5],[1,0.5]];portConstraint=eastwest;whiteSpace=wrap;html=1;" vertex="1" parent="1">
          <mxGeometry x="370" y="110" width="190" height="26" as="geometry" />
        </mxCell>
        <mxCell id="4WO6VbGbFrIAR0FbYB0c-10" value="&lt;p style=&quot;margin:0px;margin-top:4px;text-align:center;&quot;&gt;&lt;i&gt;&amp;lt;&amp;lt;Interface&amp;gt;&amp;gt;&lt;/i&gt;&lt;br&gt;&lt;b&gt;Clickup Task Interface&lt;/b&gt;&lt;/p&gt;&lt;hr size=&quot;1&quot; style=&quot;border-style:solid;&quot;&gt;&lt;p style=&quot;margin:0px;margin-left:4px;&quot;&gt;+ Title: String&lt;br&gt;+ Time estimation: DateTime&lt;/p&gt;&lt;p style=&quot;margin:0px;margin-left:4px;&quot;&gt;+ Due Date: DateTime&lt;br&gt;&lt;/p&gt;&lt;p style=&quot;margin:0px;margin-left:4px;&quot;&gt;+ Time duaration: DateTime&lt;br&gt;&lt;/p&gt;&lt;p style=&quot;margin:0px;margin-left:4px;&quot;&gt;+ Priority: Enum&lt;br&gt;&lt;/p&gt;&lt;hr size=&quot;1&quot; style=&quot;border-style:solid;&quot;&gt;&lt;p style=&quot;margin:0px;margin-left:4px;&quot;&gt;+ method1(Type): Type&lt;br&gt;+ method2(Type, Type): Type&lt;/p&gt;" style="verticalAlign=top;align=left;overflow=fill;html=1;whiteSpace=wrap;" vertex="1" parent="1">
          <mxGeometry x="370" y="370" width="190" height="170" as="geometry" />
        </mxCell>
        <mxCell id="4WO6VbGbFrIAR0FbYB0c-11" value="Extends" style="endArrow=block;endSize=16;endFill=0;html=1;rounded=0;exitX=0.5;exitY=0;exitDx=0;exitDy=0;entryX=0.5;entryY=1;entryDx=0;entryDy=0;" edge="1" parent="1" source="4WO6VbGbFrIAR0FbYB0c-10" target="4WO6VbGbFrIAR0FbYB0c-1">
          <mxGeometry width="160" relative="1" as="geometry">
            <mxPoint x="360" y="530" as="sourcePoint" />
            <mxPoint x="520" y="530" as="targetPoint" />
          </mxGeometry>
        </mxCell>
        <mxCell id="4WO6VbGbFrIAR0FbYB0c-18" value="" style="edgeStyle=orthogonalEdgeStyle;html=1;verticalAlign=bottom;endArrow=open;endSize=8;strokeColor=#ff0000;rounded=0;" edge="1" source="4WO6VbGbFrIAR0FbYB0c-17" parent="1">
          <mxGeometry relative="1" as="geometry">
            <mxPoint x="1325" y="136" as="targetPoint" />
          </mxGeometry>
        </mxCell>
        <mxCell id="4WO6VbGbFrIAR0FbYB0c-19" value="" style="html=1;points=[[0,0,0,0,5],[0,1,0,0,-5],[1,0,0,0,5],[1,1,0,0,-5]];perimeter=orthogonalPerimeter;outlineConnect=0;targetShapes=umlLifeline;portConstraint=eastwest;newEdgeStyle={&quot;curved&quot;:0,&quot;rounded&quot;:0};" vertex="1" parent="1">
          <mxGeometry x="1271" y="40" width="239" height="1600" as="geometry" />
        </mxCell>
        <mxCell id="4WO6VbGbFrIAR0FbYB0c-20" value="dispatch" style="html=1;verticalAlign=bottom;endArrow=block;curved=0;rounded=0;entryX=0;entryY=0;entryDx=0;entryDy=5;exitX=0.997;exitY=0.11;exitDx=0;exitDy=0;exitPerimeter=0;" edge="1" target="4WO6VbGbFrIAR0FbYB0c-19" parent="1" source="4WO6VbGbFrIAR0FbYB0c-30">
          <mxGeometry relative="1" as="geometry">
            <mxPoint x="1070" y="45" as="sourcePoint" />
          </mxGeometry>
        </mxCell>
        <mxCell id="4WO6VbGbFrIAR0FbYB0c-21" value="return" style="html=1;verticalAlign=bottom;endArrow=open;dashed=1;endSize=8;curved=0;rounded=0;exitX=0;exitY=1;exitDx=0;exitDy=-5;" edge="1" source="4WO6VbGbFrIAR0FbYB0c-19" parent="1">
          <mxGeometry relative="1" as="geometry">
            <mxPoint x="870" y="1640" as="targetPoint" />
          </mxGeometry>
        </mxCell>
        <mxCell id="4WO6VbGbFrIAR0FbYB0c-23" value="" style="edgeStyle=orthogonalEdgeStyle;rounded=0;orthogonalLoop=1;jettySize=auto;html=1;entryX=0.5;entryY=0;entryDx=0;entryDy=0;" edge="1" parent="1" source="4WO6VbGbFrIAR0FbYB0c-17" target="4WO6VbGbFrIAR0FbYB0c-32">
          <mxGeometry relative="1" as="geometry">
            <mxPoint x="1385" y="155" as="targetPoint" />
          </mxGeometry>
        </mxCell>
        <mxCell id="4WO6VbGbFrIAR0FbYB0c-17" value="" style="ellipse;html=1;shape=startState;fillColor=#000000;strokeColor=#ff0000;" vertex="1" parent="1">
          <mxGeometry x="1370" y="60" width="30" height="30" as="geometry" />
        </mxCell>
        <mxCell id="4WO6VbGbFrIAR0FbYB0c-30" value="External Applications" style="shape=umlFrame;whiteSpace=wrap;html=1;pointerEvents=0;width=130;height=47;" vertex="1" parent="1">
          <mxGeometry x="-230" y="23" width="1290" height="200" as="geometry" />
        </mxCell>
        <mxCell id="4WO6VbGbFrIAR0FbYB0c-32" value="New task added" style="rounded=1;whiteSpace=wrap;html=1;arcSize=40;fontColor=#000000;fillColor=#ffffc0;strokeColor=#ff0000;" vertex="1" parent="1">
          <mxGeometry x="1325" y="136" width="120" height="40" as="geometry" />
        </mxCell>
        <mxCell id="4WO6VbGbFrIAR0FbYB0c-33" value="" style="edgeStyle=orthogonalEdgeStyle;html=1;verticalAlign=bottom;endArrow=open;endSize=8;strokeColor=#ff0000;rounded=0;" edge="1" source="4WO6VbGbFrIAR0FbYB0c-32" parent="1">
          <mxGeometry relative="1" as="geometry">
            <mxPoint x="1385" y="260" as="targetPoint" />
          </mxGeometry>
        </mxCell>
        <mxCell id="4WO6VbGbFrIAR0FbYB0c-35" value="&lt;p style=&quot;margin:0px;margin-top:4px;text-align:center;&quot;&gt;&lt;i&gt;&amp;lt;&amp;lt;Interface&amp;gt;&amp;gt;&lt;/i&gt;&lt;br&gt;&lt;b&gt;Google calendar Interface&lt;/b&gt;&lt;/p&gt;&lt;hr size=&quot;1&quot; style=&quot;border-style:solid;&quot;&gt;&lt;p style=&quot;margin:0px;margin-left:4px;&quot;&gt;+ field1: Type&lt;br&gt;+ field2: Type&lt;/p&gt;&lt;hr size=&quot;1&quot; style=&quot;border-style:solid;&quot;&gt;&lt;p style=&quot;margin:0px;margin-left:4px;&quot;&gt;+ method1(Type): Type&lt;br&gt;+ method2(Type, Type): Type&lt;/p&gt;" style="verticalAlign=top;align=left;overflow=fill;html=1;whiteSpace=wrap;" vertex="1" parent="1">
          <mxGeometry x="130" y="40" width="190" height="140" as="geometry" />
        </mxCell>
        <mxCell id="4WO6VbGbFrIAR0FbYB0c-36" value="" style="shape=flexArrow;endArrow=classic;html=1;rounded=0;exitX=0;exitY=0.5;exitDx=0;exitDy=0;entryX=1.005;entryY=0.68;entryDx=0;entryDy=0;entryPerimeter=0;endWidth=14;endSize=4.81;width=8;" edge="1" parent="1" source="4WO6VbGbFrIAR0FbYB0c-32" target="4WO6VbGbFrIAR0FbYB0c-30">
          <mxGeometry width="50" height="50" relative="1" as="geometry">
            <mxPoint x="1120" y="210" as="sourcePoint" />
            <mxPoint x="1170" y="160" as="targetPoint" />
          </mxGeometry>
        </mxCell>
      </root>
    </mxGraphModel>
  </diagram>
</mxfile>
